PathFileType	4	(X/Y/Z)	Patient4_TMGait_0pt2_02_right_23.trc.trc
DataRate	CameraRate	NumFrames	NumMarkers	Units	OrigDataRate	OrigDataStartFrame	OrigNumFrames
46.052631578947	46.052631578947	4	33	mm	46.052631578947	1	       141
Frame#	Time	R.Midfoot.Superior			Sacral			L.Shoulder			Chest			R.Shoulder			Neck			R.ASIS			L.ASIS			R.Thigh.Superior			R.Thigh.Lateral			R.Thigh.Inferior			R.Patella			L.Thigh.Superior			L.Thigh.Lateral			L.Thigh.Inferior			L.Patella			L.Shank.Superior			L.Shank.Lateral			L.Shank.Inferior			R.Shank.Superior			R.Shank.Lateral			R.Shank.Inferior			R.Heel			R.Midfoot.Lateral			R.Toe			L.Heel			L.Midfoot.Lateral			L.Midfoot.Superior			L.Toe			L.Elbow			L.Wrist			R.Elbow			R.Wrist			
		X1	Y1	Z1	X2	Y2	Z2	X3	Y3	Z3	X4	Y4	Z4	X5	Y5	Z5	X6	Y6	Z6	X7	Y7	Z7	X8	Y8	Z8	X9	Y9	Z9	X10	Y10	Z10	X11	Y11	Z11	X12	Y12	Z12	X13	Y13	Z13	X14	Y14	Z14	X15	Y15	Z15	X16	Y16	Z16	X17	Y17	Z17	X18	Y18	Z18	X19	Y19	Z19	X20	Y20	Z20	X21	Y21	Z21	X22	Y22	Z22	X23	Y23	Z23	X24	Y24	Z24	X25	Y25	Z25	X26	Y26	Z26	X27	Y27	Z27	X28	Y28	Z28	X29	Y29	Z29	X30	Y30	Z30	X31	Y31	Z31	X32	Y32	Z32	X33	Y33	Z33	

1	50.650000000000	1034.620726596231	112.363466485453	614.548178323236	974.164908152940	1018.358506385967	452.819187174482	1142.383735848005	1435.982904072410	247.923149691714	1262.416910519214	1363.635416879073	394.943903116682	1206.696697940699	1444.449642099614	574.179157349677	1142.498766642872	1500.421881996900	404.386319714486	1207.202627422387	942.704220186564	552.151041126962	1174.328906224681	961.867681965024	280.600539995609	1231.155926213225	736.634370077400	535.909838661197	1148.235405004317	635.695557033991	612.317659484723	1219.980751461844	570.036050948074	535.061643995911	1211.771143268572	468.956128368193	557.082797493018	1230.132488210517	758.818705171953	313.126162550160	1145.714212485186	634.732199562080	257.823851923695	1237.822888321000	564.615144886071	316.227507653335	1241.797110908393	494.584057570743	324.234595172980	1216.369457047149	421.612092213245	319.368263161486	1125.760152367290	304.225680986481	276.850121891441	1186.279949752877	195.279975828711	345.161127844282	1145.898084112554	400.050977008059	570.790536616248	1039.215259361606	342.042766848911	642.034570246188	1042.493348479596	230.378377041107	593.171056624917	855.657107473205	117.923481405421	578.742170778822	931.922289529871	82.218028783318	651.916187847175	1129.127072631055	35.976907319695	640.414564125513	1063.917911158823	38.699515782077	398.126277680133	1131.864713512952	36.458243915051	312.270229242120	1216.675802196327	97.440716023752	332.862771635643	1342.362071508782	47.010435746173	295.710839105791	1089.595020775372	1090.680213261599	123.465945412230	1141.198770105162	833.408949733044	129.614938112755	1353.942904146635	1124.497858784596	672.348461301493	1605.184753133910	1092.956436109468	602.206188608939	
2	50.671714285714	1034.265138542435	122.236888191127	612.491573722534	972.812117519905	1015.462029152336	447.916974466401	1143.075080044051	1434.313608995960	244.999887096238	1260.289322686263	1362.049772738069	394.114006604603	1201.651591315512	1442.470822873703	572.624481287378	1140.750236270318	1498.744833148154	401.596398620569	1205.395379202515	941.771431318277	549.440074181773	1174.907417963759	960.404413060518	277.814266706053	1238.666496557759	740.334631469577	531.211623275708	1161.986454876664	636.082331058367	607.568180811105	1236.142851660491	573.551173602104	529.764827760772	1230.813651131973	470.011739488941	552.502520265490	1231.901955801836	757.625713396046	310.699710489422	1148.983773559299	632.865942100331	255.696078351520	1241.277624281330	563.547502841105	314.749028966514	1245.509414536906	493.038059313982	322.973026989804	1218.631435392674	419.611077792029	318.430036045769	1126.379363453041	303.579940371785	275.888055904779	1184.233383435640	194.108774653798	345.078816389773	1161.512825096831	401.634175229440	566.569321855131	1051.926791151130	350.544368251580	637.918392159922	1048.793543171264	239.194082692401	590.359109437067	856.999762115293	139.786555718234	576.801116089261	930.321006446313	99.540613494407	650.149709235079	1122.461072161351	37.941643877011	639.046809844604	1059.552431261144	38.703048113871	398.046241187816	1127.524596840154	36.429696266035	312.220048190755	1212.370991366625	97.316884929293	332.995565726451	1338.045381308493	46.890932156266	295.716310164276	1104.629393200958	1088.480337604919	118.798302510510	1164.397052447636	833.466616133273	125.058749984911	1330.714143101301	1114.815407745354	672.600589163350	1574.226987430282	1055.777952929305	611.440164701574	
3	50.693428571429	1034.415111126454	132.283785730650	610.546999397900	971.394997691279	1012.313080461126	442.946525898019	1143.763564644859	1432.510147084264	242.159958752111	1258.088001389044	1360.305846419322	393.386927355652	1196.422895499460	1440.204821453450	571.182850549593	1138.942263489650	1496.880758202621	398.923958778655	1203.585294487993	940.686651320013	546.625359170260	1175.484454452744	958.799588516678	274.915659122369	1246.165324886664	744.076878264615	526.408818710870	1175.939869880494	636.586963219492	602.768132585203	1252.497049381683	577.301852247636	524.436171339499	1250.223671644850	471.339306309424	547.834757126392	1233.840256436399	756.335489513761	308.262310149239	1152.495159401482	630.873872681253	253.547672978304	1245.002922776647	562.369870017486	313.414729557659	1249.540850222944	491.361937333990	321.891973637721	1221.126609591530	417.461220921513	317.631985699358	1127.156803909991	302.890736239300	275.006916176298	1182.166007043529	192.856007951306	345.074737143233	1177.540742498412	403.406241937410	562.351995416469	1065.031069909289	359.216356150160	633.776050738644	1055.558132944610	248.138428777891	587.599757695091	858.835274641255	161.593971924331	574.897831532559	929.236574471414	116.927204890433	648.455603152569	1116.368997707550	40.323940011773	637.856709565095	1055.029950390627	38.712194779411	397.964659170655	1123.030901135993	36.409015831836	312.171434401936	1207.923808581582	97.184707558630	333.156767250749	1333.576931025144	46.755152817299	295.724471426529	1120.042574635408	1086.300863563642	114.273789666898	1188.652864210304	833.869945241649	120.740008005727	1306.503911964150	1104.996013076339	672.887741427344	1540.484356541724	1017.768125983619	621.094042021073	
4	50.715142857143	1035.605623182032	141.979929435128	608.866743077067	969.944622442749	1008.978378875885	438.055134807408	1144.463120437219	1430.622299048043	239.557814749610	1255.889813846509	1358.428281147030	392.847825882533	1191.145485938557	1437.650774897216	569.960048994376	1137.146179773285	1494.857382634244	396.526807297182	1201.826929713149	939.466088026910	543.808893671487	1176.047863121053	957.082385998375	271.987601113132	1253.337499566666	747.738472771343	521.681871685776	1189.555940969349	637.246495870014	598.118578735523	1268.404187409642	581.220739653334	519.306042834376	1269.308187774182	473.016246868454	543.274385605722	1235.905868055745	754.970192014226	305.912481724941	1156.163219507744	628.780970570645	251.473217454193	1248.883926639869	561.093017143404	312.319198633928	1253.772781118253	489.583595603068	321.084252708301	1223.772556928656	415.203012737202	317.045561452624	1128.061666241485	302.170247411513	274.262469239932	1180.108058034816	191.547654971648	345.170991525642	1193.513961956301	405.360315718124	558.345823885249	1078.235405603776	367.628950600726	629.824611165914	1062.899716677078	256.743254487532	585.068882044406	861.583637298191	182.046051538458	573.198994682862	929.285783617956	133.381585386686	646.987052984383	1111.795207254727	43.091377367077	636.964700655615	1050.443596523442	38.727131260876	397.883802374545	1118.477513408485	36.397978803532	312.126272488944	1203.429336311709	97.045448199800	333.347749889240	1329.050479053245	46.603127149958	295.735292113433	1135.435491575435	1084.287686452467	110.118608680047	1213.537024334537	834.859963160231	116.942082885505	1281.785728558022	1095.449078879302	673.225744310177	1504.005976145368	980.264494239548	630.921476138432	
